<svg width="200" height="100" viewBox="0 0 200 100" fill="none" xmlns="http://www.w3.org/2000/svg">
<g style="mix-blend-mode:difference">
<path d="M24.4211 65.56C23.5411 65.56 22.8411 65.2 22.3211 64.48C21.8411 63.8 21.6011 63.02 21.6011 62.14C21.6011 61.02 22.0811 59.58 23.0411 57.82C24.0011 56.06 25.2811 54.04 26.8811 51.76C28.5211 49.44 30.3411 46.92 32.3411 44.2C34.3811 41.48 36.4611 38.6 38.5811 35.56C38.6611 35.48 38.5411 35.62 38.2211 35.98C37.9011 36.34 37.5011 36.82 37.0211 37.42C36.5411 37.98 36.0611 38.56 35.5811 39.16C35.1011 39.76 34.7011 40.24 34.3811 40.6C34.1011 40.96 33.9811 41.1 34.0211 41.02L39.0011 33.34C39.2411 32.98 39.6211 32.56 40.1411 32.08C40.6611 31.56 40.9211 31.16 40.9211 30.88C40.9211 30.72 40.7211 30.64 40.3211 30.64C40.2011 30.64 40.0411 30.64 39.8411 30.64C39.6811 30.64 39.4811 30.68 39.2411 30.76C38.4011 30.92 37.2811 31.26 35.8811 31.78C34.4811 32.3 32.9411 32.94 31.2611 33.7C29.6211 34.42 27.9611 35.24 26.2811 36.16C24.6411 37.08 23.1411 38.02 21.7811 38.98C20.4211 39.94 19.3411 40.9 18.5411 41.86C17.7411 42.78 17.3611 43.64 17.4011 44.44C17.4811 45.4 17.4011 46.04 17.1611 46.36C16.9211 46.64 16.6211 46.94 16.2611 47.26C16.0611 47.42 15.7811 47.5 15.4211 47.5C14.7811 47.5 14.1411 47.18 13.5011 46.54C12.9011 45.9 12.6011 45.08 12.6011 44.08C12.6011 43.52 12.7011 42.96 12.9011 42.4C13.1411 41.8 13.5211 41.18 14.0411 40.54C15.1211 39.18 16.6611 37.84 18.6611 36.52C20.7011 35.2 22.9811 33.98 25.5011 32.86C28.0211 31.74 30.5811 30.8 33.1811 30.04C35.7811 29.28 38.2011 28.76 40.4411 28.48C41.1611 28.4 41.9411 28.66 42.7811 29.26C43.6211 29.86 44.3211 30.58 44.8811 31.42C45.4811 32.26 45.7811 33 45.7811 33.64C45.7811 33.96 45.7011 34.2 45.5411 34.36C43.9411 36.08 42.2211 38.02 40.3811 40.18C38.5811 42.3 36.8811 44.4 35.2811 46.48C33.6811 48.56 32.3811 50.4 31.3811 52C30.8611 52.84 30.3211 53.62 29.7611 54.34C29.2411 55.02 28.9811 55.4 28.9811 55.48C28.9811 55.56 29.2011 55.42 29.6411 55.06C30.0811 54.7 30.8411 54.02 31.9211 53.02C32.2811 52.66 32.9411 52.02 33.9011 51.1C34.8611 50.14 35.9811 49.04 37.2611 47.8C38.5811 46.56 39.9411 45.28 41.3411 43.96C42.7811 42.6 44.1611 41.36 45.4811 40.24C46.8411 39.08 48.0411 38.12 49.0811 37.36C50.1611 36.6 50.9411 36.2 51.4211 36.16C51.7011 36.12 52.1211 36.24 52.6811 36.52C53.2411 36.76 53.7811 37.08 54.3011 37.48C54.8611 37.84 55.3011 38.22 55.6211 38.62C55.9411 39.02 56.0011 39.34 55.8011 39.58C55.3211 40.18 54.7211 41.04 54.0011 42.16C53.2811 43.24 52.5411 44.46 51.7811 45.82C51.0611 47.18 50.3811 48.56 49.7411 49.96C48.9811 51.6 48.3611 53.18 47.8811 54.7C47.4011 56.22 47.1611 57.44 47.1611 58.36C47.1611 59.52 47.5611 60.1 48.3611 60.1C48.8811 60.1 49.5811 59.82 50.4611 59.26C51.3811 58.7 52.5211 57.8 53.8811 56.56C55.3211 55.24 56.7811 53.66 58.2611 51.82C59.7811 49.98 61.2611 48.04 62.7011 46C64.1411 43.96 65.4811 41.94 66.7211 39.94C68.0011 37.9 69.1211 36.02 70.0811 34.3C71.0811 32.58 71.8411 31.16 72.3611 30.04C72.4811 29.8 72.3611 29.54 72.0011 29.26C71.6411 28.98 71.4211 28.7 71.3411 28.42C71.2211 27.86 71.3011 27.36 71.5811 26.92C71.9011 26.48 72.3611 26.36 72.9611 26.56C74.2811 26.96 75.4011 27.64 76.3211 28.6C77.2811 29.52 77.7611 30.38 77.7611 31.18C77.7611 31.5 77.7211 31.72 77.6411 31.84C77.1211 32.92 76.4211 34.18 75.5411 35.62C74.7011 37.06 73.9611 38.34 73.3211 39.46C73.3611 39.3 73.4811 38.98 73.6811 38.5C73.9211 37.98 74.1811 37.42 74.4611 36.82C74.7411 36.22 74.9811 35.72 75.1811 35.32C75.3811 34.88 75.4611 34.7 75.4211 34.78C74.8211 35.78 74.1211 36.92 73.3211 38.2C72.5611 39.44 71.7211 40.76 70.8011 42.16L72.6011 39.64C71.8011 41.08 71.0611 42.38 70.3811 43.54C69.7011 44.66 69.0011 45.76 68.2811 46.84C67.5611 47.88 66.7411 49.02 65.8211 50.26C64.9011 51.54 63.8411 52.86 62.6411 54.22C61.4411 55.58 60.2211 56.88 58.9811 58.12C57.7811 59.32 56.7011 60.32 55.7411 61.12C55.5011 61.28 55.3611 61.28 55.3211 61.12C54.3211 61.96 53.3811 62.64 52.5011 63.16C51.6211 63.64 50.7811 63.92 49.9811 64C48.9411 63.8 47.9011 63.44 46.8611 62.92C45.8611 62.36 44.9811 61.72 44.2211 61C43.5011 60.24 43.0611 59.46 42.9011 58.66C42.7811 58.06 42.7211 57.56 42.7211 57.16C42.7211 56.76 42.7611 56.32 42.8411 55.84C42.9611 55.36 43.1011 54.74 43.2611 53.98C43.6211 52.34 44.1411 50.62 44.8211 48.82C45.5011 47.02 46.2011 45.38 46.9211 43.9C47.6411 42.42 48.2611 41.36 48.7811 40.72C47.6611 41.48 46.3011 42.52 44.7011 43.84C43.1411 45.12 41.4811 46.56 39.7211 48.16C37.9611 49.72 36.2211 51.32 34.5011 52.96C32.8211 54.6 31.3011 56.16 29.9411 57.64C28.5811 59.12 27.5211 60.4 26.7611 61.48C27.2011 61.08 27.7611 60.52 28.4411 59.8C29.1211 59.08 29.7611 58.4 30.3611 57.76C31.0011 57.08 31.4411 56.66 31.6811 56.5C31.3611 56.86 30.9411 57.36 30.4211 58C29.9011 58.6 29.3811 59.22 28.8611 59.86C28.3811 60.5 27.9611 61.04 27.6011 61.48C27.2811 61.92 27.1211 62.16 27.1211 62.2C27.1611 62.32 27.1811 62.48 27.1811 62.68C27.1811 63.44 26.8611 64.1 26.2211 64.66C25.5811 65.26 24.9811 65.56 24.4211 65.56ZM55.3211 61.12C57.0011 59.72 58.7411 57.98 60.5411 55.9C62.3811 53.78 64.1811 51.52 65.9411 49.12C67.7011 46.72 69.3211 44.4 70.8011 42.16L65.2211 49.9C62.9011 53.14 60.8211 55.62 58.9811 57.34C57.1411 59.02 56.0611 60.02 55.7411 60.34C55.4611 60.58 55.3211 60.84 55.3211 61.12ZM79.6258 64.3C79.2258 64.3 78.7858 64.14 78.3058 63.82C77.8658 63.5 77.4658 63.16 77.1058 62.8C76.7858 62.4 76.6258 62.06 76.6258 61.78C76.6258 61.54 76.6858 61.42 76.8058 61.42C76.8858 61.42 77.0058 61.46 77.1658 61.54C77.3258 61.58 77.5058 61.64 77.7058 61.72C77.5858 61.44 77.4858 61.18 77.4058 60.94C77.3258 60.7 77.2858 60.46 77.2858 60.22C77.2858 60.18 77.4858 59.78 77.8858 59.02C78.2858 58.22 78.7858 57.26 79.3858 56.14C79.9858 55.02 80.6058 53.88 81.2458 52.72C81.8858 51.52 82.4458 50.48 82.9258 49.6C83.4058 48.72 83.7058 48.14 83.8258 47.86L83.7058 48.04C83.5058 48.36 83.1858 48.88 82.7458 49.6C82.3058 50.28 81.8458 51 81.3658 51.76C80.8858 52.52 80.4858 53.16 80.1658 53.68C79.8458 54.2 79.6858 54.44 79.6858 54.4C79.8858 53.8 80.1458 53.14 80.4658 52.42C80.7858 51.7 81.2058 50.86 81.7258 49.9C80.1658 51.42 78.4858 53.06 76.6858 54.82C74.9258 56.58 73.3058 58.28 71.8258 59.92C70.3458 61.52 69.2258 62.88 68.4658 64C67.5858 63.24 66.9658 62.54 66.6058 61.9C66.2858 61.26 66.1258 60.64 66.1258 60.04C66.1258 59.8 66.1658 59.56 66.2458 59.32C66.2858 59.08 66.3258 58.84 66.3658 58.6C66.6058 57.76 67.2258 56.5 68.2258 54.82C69.2658 53.14 70.5258 51.22 72.0058 49.06C73.4858 46.9 75.0658 44.66 76.7458 42.34C78.4258 40.02 80.0458 37.8 81.6058 35.68C83.1658 33.56 84.5458 31.7 85.7458 30.1C86.9458 28.5 87.7858 27.36 88.2658 26.68C88.2658 26.64 88.2458 26.62 88.2058 26.62C88.1658 26.62 88.0658 26.68 87.9058 26.8C87.7458 26.92 87.5058 27.18 87.1858 27.58C86.3058 28.7 85.4058 29.84 84.4858 31C83.5658 32.16 82.7258 33.22 81.9658 34.18C81.2058 35.14 80.5858 35.9 80.1058 36.46C79.6258 37.02 79.3858 37.28 79.3858 37.24C79.3858 37.2 79.6658 36.76 80.2258 35.92C80.8258 35.08 81.5458 34.06 82.3858 32.86C83.2658 31.66 84.1458 30.46 85.0258 29.26C85.9058 28.06 86.6458 27.06 87.2458 26.26C87.8458 25.46 88.1658 25.06 88.2058 25.06H88.2658C88.4258 25.06 88.6258 25.12 88.8658 25.24C89.1458 25.36 89.3658 25.46 89.5258 25.54C89.8458 25.62 90.2858 25.9 90.8458 26.38C91.4458 26.86 91.9458 27.4 92.3458 28C92.7858 28.56 92.9258 29.06 92.7658 29.5C92.2858 29.98 91.5258 30.82 90.4858 32.02C89.4458 33.22 88.2058 34.64 86.7658 36.28C85.3658 37.92 83.8858 39.68 82.3258 41.56C80.7658 43.4 79.2258 45.24 77.7058 47.08C76.1858 48.88 74.7858 50.56 73.5058 52.12C72.2258 53.64 71.1858 54.92 70.3858 55.96C69.5858 57 69.1258 57.64 69.0058 57.88C69.3658 57.68 70.0658 57.16 71.1058 56.32C72.1858 55.48 73.4258 54.46 74.8258 53.26C76.2658 52.02 77.7458 50.72 79.2658 49.36C80.7858 48 82.2058 46.68 83.5258 45.4C84.8458 44.12 85.9258 43.04 86.7658 42.16L87.4858 41.2C88.0058 41.4 88.5658 41.68 89.1658 42.04C89.8058 42.36 90.3458 42.72 90.7858 43.12C91.2658 43.48 91.5058 43.86 91.5058 44.26C91.5058 44.38 91.4458 44.54 91.3258 44.74C89.3658 47.5 87.7658 49.76 86.5258 51.52C85.2858 53.24 84.5658 54.3 84.3658 54.7C84.8458 54.46 85.5258 54.06 86.4058 53.5C87.2858 52.9 88.2858 52.26 89.4058 51.58C90.6858 50.78 92.0058 49.96 93.3658 49.12C94.7658 48.28 96.1458 47.58 97.5058 47.02C97.8258 46.9 97.8258 46.96 97.5058 47.2C97.2258 47.44 96.8258 47.74 96.3058 48.1C95.7858 48.42 95.3458 48.68 94.9858 48.88C95.6258 48.56 96.1658 48.32 96.6058 48.16C97.0858 47.96 97.7058 47.7 98.4658 47.38C98.8258 47.22 99.1258 47.14 99.3658 47.14C99.6458 47.14 99.6858 47.28 99.4858 47.56C99.2858 47.84 98.9658 48.18 98.5258 48.58C98.1258 48.94 97.7258 49.24 97.3258 49.48C96.8458 49.76 95.9658 50.36 94.6858 51.28C93.4058 52.2 91.9658 53.26 90.3658 54.46C88.8058 55.62 87.3258 56.76 85.9258 57.88C85.2458 58.4 84.6058 58.94 84.0058 59.5C83.4058 60.06 82.8658 60.58 82.3858 61.06C82.5458 61.1 82.7058 61.2 82.8658 61.36C83.0658 61.52 83.1658 61.7 83.1658 61.9C83.1658 62.18 82.9258 62.52 82.4458 62.92C81.9658 63.28 81.4458 63.6 80.8858 63.88C80.3258 64.16 79.9058 64.3 79.6258 64.3ZM83.9458 55.96C84.4658 55.52 85.3058 54.92 86.4658 54.16C87.6658 53.36 88.9458 52.52 90.3058 51.64C91.7058 50.76 92.9258 50.02 93.9658 49.42C93.0858 49.82 92.1258 50.32 91.0858 50.92C90.0458 51.48 89.1858 51.98 88.5058 52.42C87.5058 53.06 86.6658 53.6 85.9858 54.04C85.3058 54.44 84.7458 54.86 84.3058 55.3C84.1858 55.38 84.0658 55.54 83.9458 55.78C83.8258 55.98 83.8258 56.04 83.9458 55.96ZM89.9678 84.52C89.7678 84.52 89.4278 84.34 88.9478 83.98C88.8278 83.86 88.5278 83.6 88.0478 83.2C87.5678 82.84 87.1278 82.42 86.7278 81.94C86.2878 81.5 86.0678 81.12 86.0678 80.8C86.0678 80.6 86.2678 80.2 86.6678 79.6C87.0678 79.04 87.5478 78.38 88.1078 77.62C88.9478 76.46 89.9678 75.06 91.1678 73.42C92.4078 71.78 93.7278 70.02 95.1278 68.14C96.5278 66.3 97.9278 64.46 99.3278 62.62C100.728 60.74 102.028 59 103.228 57.4C104.468 55.76 105.508 54.36 106.348 53.2C107.228 52 107.828 51.16 108.148 50.68C108.228 50.56 108.088 50.72 107.728 51.16C107.368 51.56 106.908 52.1 106.348 52.78C105.788 53.42 105.248 54.08 104.728 54.76C104.248 55.4 103.908 55.88 103.708 56.2C103.748 56 103.988 55.6 104.428 55C104.868 54.4 105.368 53.72 105.928 52.96C106.528 52.2 107.068 51.5 107.548 50.86C108.068 50.22 108.408 49.78 108.568 49.54C107.488 50.74 106.208 52.04 104.728 53.44C103.288 54.8 101.788 56.16 100.228 57.52C98.7078 58.88 97.2878 60.16 95.9678 61.36C94.6878 62.52 93.6678 63.5 92.9078 64.3C91.9078 63.98 91.1878 63.46 90.7478 62.74C90.3478 61.98 90.1478 61.22 90.1478 60.46C90.1478 60.02 90.2078 59.62 90.3278 59.26C90.7678 58.34 91.4478 57.16 92.3678 55.72C93.2878 54.24 94.2678 52.72 95.3078 51.16C96.3478 49.6 97.3078 48.16 98.1878 46.84C99.0678 45.48 99.7078 44.46 100.108 43.78C99.9878 43.58 99.7678 43.74 99.4478 44.26C99.1278 44.74 98.7678 45.36 98.3678 46.12C97.9678 46.84 97.5878 47.5 97.2278 48.1C96.8678 48.66 96.6278 48.92 96.5078 48.88C96.5078 48.84 96.6678 48.52 96.9878 47.92C97.3078 47.32 97.6678 46.64 98.0678 45.88C98.5078 45.08 98.8878 44.38 99.2078 43.78C99.5278 43.18 99.6878 42.86 99.6878 42.82C99.6078 42.62 99.5278 42.44 99.4478 42.28C99.3678 42.08 99.3278 41.92 99.3278 41.8C99.3278 41.4 99.6078 41.2 100.168 41.2C100.448 41.2 100.828 41.26 101.308 41.38C101.588 41.42 102.008 41.54 102.568 41.74C103.168 41.9 103.728 42.18 104.248 42.58C104.768 42.98 105.028 43.5 105.028 44.14C105.028 44.58 104.888 45.02 104.608 45.46C104.128 46.02 103.548 46.82 102.868 47.86C102.188 48.86 101.488 49.94 100.768 51.1C100.048 52.22 99.4078 53.26 98.8478 54.22C98.2878 55.18 97.8878 55.88 97.6478 56.32C98.3678 55.76 99.3478 54.86 100.588 53.62C101.828 52.38 103.168 51 104.608 49.48C106.048 47.92 107.448 46.42 108.808 44.98C110.208 43.54 111.408 42.38 112.408 41.5C113.008 41.74 113.728 42.06 114.568 42.46C115.408 42.86 116.088 43.28 116.608 43.72C117.128 44.16 117.228 44.6 116.908 45.04C115.548 46.88 114.348 48.42 113.308 49.66C112.268 50.9 111.248 52.12 110.248 53.32C109.288 54.48 108.168 55.9 106.888 57.58C105.768 59.06 104.648 60.6 103.528 62.2C102.408 63.76 101.308 65.32 100.228 66.88C98.9078 68.8 97.6678 70.64 96.5078 72.4C95.3478 74.16 94.2478 75.82 93.2078 77.38C93.2478 77.18 93.5478 76.6 94.1078 75.64C94.7078 74.68 95.4078 73.56 96.2078 72.28C97.0078 71.04 97.7878 69.82 98.5478 68.62C99.3478 67.42 100.008 66.42 100.528 65.62C101.048 64.82 101.288 64.44 101.248 64.48C101.208 64.52 100.948 64.86 100.468 65.5C100.028 66.14 99.4878 66.92 98.8478 67.84C98.2078 68.76 97.6078 69.66 97.0478 70.54C96.4878 71.42 96.0478 72.14 95.7278 72.7C95.2078 73.62 94.6478 74.54 94.0478 75.46C93.4878 76.38 93.0278 77.14 92.6678 77.74C92.3478 78.38 92.2678 78.74 92.4278 78.82C93.0278 78.58 93.5678 78.46 94.0478 78.46C94.6878 78.46 95.1278 78.64 95.3678 79C95.5278 79.2 95.6078 79.38 95.6078 79.54C95.6078 79.7 95.4278 79.76 95.0678 79.72C94.8278 79.68 94.3878 79.92 93.7478 80.44C93.1478 80.96 92.6278 81.48 92.1878 82C91.7878 82.52 91.4278 83.06 91.1078 83.62C90.7878 84.22 90.4078 84.52 89.9678 84.52ZM114.173 64C113.493 63.92 112.953 63.54 112.553 62.86C112.153 62.14 111.953 61.46 111.953 60.82C111.953 60.3 112.233 59.48 112.793 58.36C113.393 57.24 114.133 55.98 115.013 54.58C115.933 53.14 116.873 51.74 117.833 50.38C118.833 48.98 119.713 47.74 120.473 46.66C121.273 45.58 121.833 44.82 122.153 44.38C121.633 44.86 121.153 45.34 120.713 45.82C120.273 46.3 120.013 46.54 119.933 46.54C119.893 46.54 120.093 46.18 120.533 45.46C121.013 44.7 121.933 43.34 123.293 41.38C123.693 41.38 124.173 41.6 124.733 42.04C125.293 42.48 125.793 42.98 126.233 43.54C126.673 44.1 126.893 44.58 126.893 44.98C126.453 45.7 125.753 46.62 124.793 47.74C123.873 48.82 122.893 49.94 121.853 51.1C120.853 52.26 119.953 53.32 119.153 54.28C119.273 54.16 119.753 53.74 120.593 53.02C121.473 52.3 122.553 51.4 123.833 50.32C125.113 49.24 126.473 48.1 127.913 46.9C129.393 45.7 130.793 44.58 132.113 43.54C133.433 42.46 134.553 41.6 135.473 40.96C136.433 40.28 137.033 39.94 137.273 39.94C137.513 39.94 137.853 40.18 138.293 40.66C138.773 41.1 139.213 41.6 139.613 42.16C140.013 42.72 140.213 43.18 140.213 43.54C140.213 43.58 139.913 43.92 139.313 44.56C138.753 45.2 138.033 46.02 137.153 47.02C136.313 47.98 135.473 49 134.633 50.08C133.793 51.12 133.073 52.1 132.473 53.02C131.913 53.94 131.653 54.62 131.693 55.06C131.293 54.98 130.953 54.62 130.673 53.98C130.393 53.3 130.253 52.54 130.253 51.7C130.253 51.22 130.393 50.64 130.673 49.96C130.993 49.28 131.333 48.62 131.693 47.98C132.093 47.34 132.433 46.78 132.713 46.3C133.033 45.82 133.193 45.56 133.193 45.52C132.953 45.8 132.613 46.26 132.173 46.9C131.773 47.54 131.373 48.18 130.973 48.82C130.613 49.42 130.373 49.86 130.253 50.14C130.373 49.66 130.713 48.88 131.273 47.8C131.833 46.72 132.573 45.64 133.493 44.56C133.053 44.96 132.293 45.64 131.213 46.6C130.173 47.52 128.973 48.62 127.613 49.9C126.253 51.18 124.833 52.52 123.353 53.92C121.913 55.28 120.533 56.62 119.213 57.94C117.893 59.26 116.773 60.46 115.853 61.54C114.973 62.58 114.413 63.4 114.173 64ZM139.778 64.42C138.898 64.42 137.958 64.08 136.958 63.4C135.958 62.72 135.098 61.92 134.378 61C133.698 60.08 133.358 59.24 133.358 58.48C133.358 57.04 133.778 55.5 134.618 53.86C135.498 52.18 136.618 50.54 137.978 48.94C139.378 47.34 140.858 45.92 142.418 44.68C143.978 43.44 145.478 42.54 146.918 41.98C147.318 41.82 147.678 41.72 147.998 41.68C148.318 41.64 148.558 41.62 148.718 41.62C149.198 41.62 149.758 41.96 150.398 42.64C151.038 43.28 151.618 43.98 152.138 44.74C152.658 45.5 152.958 46.08 153.038 46.48C153.038 47.12 152.658 47.9 151.898 48.82C151.178 49.7 150.218 50.62 149.018 51.58C147.818 52.5 146.518 53.36 145.118 54.16C143.758 54.96 142.438 55.6 141.158 56.08C139.878 56.52 138.778 56.72 137.858 56.68C137.218 57.84 136.898 58.8 136.898 59.56C136.898 59.96 136.998 60.32 137.198 60.64C137.398 60.92 137.798 61.04 138.398 61C139.358 60.68 140.558 60.1 141.998 59.26C143.438 58.42 144.978 57.48 146.618 56.44C148.298 55.36 149.938 54.32 151.538 53.32C153.178 52.28 154.638 51.42 155.918 50.74C156.598 50.38 157.098 50.2 157.418 50.2C157.698 50.2 157.838 50.3 157.838 50.5C157.838 50.66 157.658 50.92 157.298 51.28C156.978 51.64 156.478 52 155.798 52.36C155.438 52.56 155.038 52.8 154.598 53.08C154.158 53.36 153.698 53.68 153.218 54.04C152.098 54.84 150.898 55.76 149.618 56.8C148.378 57.84 147.118 58.88 145.838 59.92C144.598 60.96 143.438 61.88 142.358 62.68C141.318 63.48 140.458 64.06 139.778 64.42ZM139.118 54.7C140.318 54.26 141.598 53.64 142.958 52.84C144.318 52.04 145.598 51.2 146.798 50.32C147.998 49.4 148.958 48.58 149.678 47.86L149.978 47.56C149.978 47.48 149.738 47.62 149.258 47.98L144.218 51.7C144.178 51.74 144.118 51.76 144.038 51.76C143.998 51.76 144.018 51.72 144.098 51.64C144.178 51.52 144.318 51.4 144.518 51.28C145.318 50.72 146.138 50.1 146.978 49.42C147.818 48.7 148.618 48.02 149.378 47.38C150.338 46.62 150.818 46.16 150.818 46C149.898 46 148.718 46.44 147.278 47.32C145.838 48.2 144.378 49.3 142.898 50.62C141.458 51.94 140.198 53.3 139.118 54.7ZM155.457 65.8C155.217 65.8 154.857 65.68 154.377 65.44C153.897 65.24 153.457 64.96 153.057 64.6C152.697 64.24 152.517 63.9 152.517 63.58C152.517 63.38 152.617 63.12 152.817 62.8L152.877 62.68C152.317 61.92 151.997 61.34 151.917 60.94C152.397 59.18 153.177 57.4 154.257 55.6C155.337 53.76 156.497 52 157.737 50.32C157.097 50.96 156.497 51.62 155.937 52.3C155.417 52.94 154.957 53.46 154.557 53.86C155.237 52.82 156.117 51.72 157.197 50.56C158.277 49.4 159.257 48.32 160.137 47.32C159.737 47.8 159.337 48.28 158.937 48.76C158.537 49.24 158.137 49.76 157.737 50.32C157.977 50.08 158.197 49.84 158.397 49.6C158.637 49.36 158.877 49.14 159.117 48.94C159.357 48.7 159.737 48.3 160.257 47.74C160.817 47.18 161.417 46.56 162.057 45.88C162.737 45.2 163.357 44.58 163.917 44.02C164.517 43.46 164.977 43.08 165.297 42.88C165.817 42.52 165.937 42.34 165.657 42.34C165.457 42.34 165.117 42.54 164.637 42.94C164.197 43.34 163.757 43.76 163.317 44.2C162.917 44.64 162.657 44.92 162.537 45.04L160.137 47.32C161.297 46 162.377 44.82 163.377 43.78C164.417 42.7 165.277 41.84 165.957 41.2C166.797 41.24 167.717 41.46 168.717 41.86C169.717 42.22 170.577 42.76 171.297 43.48C172.537 44.64 173.277 45.86 173.517 47.14C174.917 45.18 176.337 43.2 177.777 41.2C179.257 39.16 180.657 37.24 181.977 35.44C183.337 33.64 184.517 32.08 185.517 30.76C186.517 29.4 187.237 28.4 187.677 27.76C187.557 27.56 187.437 27.38 187.317 27.22C187.197 27.06 187.137 26.92 187.137 26.8C187.137 26.56 187.477 26.46 188.157 26.5C188.717 26.54 189.357 26.78 190.077 27.22C190.837 27.66 191.477 28.16 191.997 28.72C192.517 29.24 192.697 29.72 192.537 30.16C192.057 30.64 191.277 31.48 190.197 32.68C189.117 33.88 187.837 35.3 186.357 36.94C184.917 38.58 183.397 40.34 181.797 42.22C180.197 44.06 178.637 45.88 177.117 47.68C176.877 47.96 176.477 48.5 175.917 49.3C175.357 50.1 174.717 51.06 173.997 52.18C173.277 53.26 172.577 54.42 171.897 55.66C171.257 56.86 170.717 58.04 170.277 59.2C169.837 60.32 169.617 61.28 169.617 62.08C169.617 63.16 169.997 63.8 170.757 64C171.277 64.16 171.537 64.32 171.537 64.48C171.537 64.68 171.257 64.78 170.697 64.78C170.257 64.78 169.777 64.7 169.257 64.54C168.297 64.26 167.617 63.8 167.217 63.16C166.857 62.48 166.677 61.74 166.677 60.94C166.677 59.74 166.937 58.5 167.457 57.22C168.017 55.9 168.537 54.8 169.017 53.92C167.777 55.08 166.397 56.38 164.877 57.82C163.357 59.22 161.897 60.52 160.497 61.72C160.577 61.72 160.657 61.76 160.737 61.84C160.897 61.92 160.757 62.18 160.317 62.62C159.917 63.02 159.377 63.48 158.697 64C158.017 64.48 157.357 64.9 156.717 65.26C156.117 65.62 155.697 65.8 155.457 65.8ZM157.617 61.12C158.177 60.76 158.957 60.22 159.957 59.5C160.957 58.74 162.077 57.88 163.317 56.92C164.597 55.92 165.897 54.88 167.217 53.8C168.537 52.68 169.757 51.62 170.877 50.62C170.717 50.54 170.637 50.36 170.637 50.08C170.637 49.8 170.717 49.5 170.877 49.18C171.237 48.5 171.497 47.9 171.657 47.38C171.817 46.86 171.897 46.4 171.897 46C171.897 45.04 171.517 44.56 170.757 44.56C170.157 44.56 169.477 44.86 168.717 45.46C168.037 45.98 167.177 46.78 166.137 47.86C165.097 48.9 164.017 50.08 162.897 51.4C161.817 52.68 160.797 53.96 159.837 55.24C158.917 56.48 158.197 57.6 157.677 58.6C157.197 59.56 157.037 60.26 157.197 60.7L166.257 54.04C166.337 53.96 166.397 53.9 166.437 53.86C166.517 53.82 166.557 53.8 166.557 53.8C166.597 53.8 166.517 53.92 166.317 54.16C166.117 54.36 165.917 54.56 165.717 54.76C165.157 55.2 164.357 55.82 163.317 56.62C162.277 57.38 161.217 58.16 160.137 58.96C159.097 59.72 158.217 60.4 157.497 61C157.337 61.12 157.257 61.2 157.257 61.24C157.297 61.28 157.417 61.24 157.617 61.12Z" fill="#E1E1E1"/>
</g>
</svg>
